<?xml version="1.0" encoding="UTF-8"?>
<svg width="512" height="512" viewBox="0 0 512 512" fill="none" xmlns="http://www.w3.org/2000/svg">
    <!-- Fundo com gradiente -->
    <defs>
        <linearGradient id="grad" x1="0%" y1="0%" x2="100%" y2="100%">
            <stop offset="0%" style="stop-color:#4f46e5;stop-opacity:1" />
            <stop offset="100%" style="stop-color:#818cf8;stop-opacity:1" />
        </linearGradient>
    </defs>
    
    <!-- Círculo de fundo -->
    <circle cx="256" cy="256" r="256" fill="url(#grad)"/>
    
    <!-- Bolhas de chat estilizadas -->
    <g transform="translate(96, 96)">
        <!-- Bolha maior (assistente) -->
        <path d="M160 80C160 35.8172 124.183 0 80 0C35.8172 0 0 35.8172 0 80C0 124.183 35.8172 160 80 160C124.183 160 160 124.183 160 80Z" 
              fill="white" 
              opacity="0.9"/>
        
        <!-- Bolha menor (usuário) -->
        <path d="M160 240C160 195.817 124.183 160 80 160C35.8172 160 0 195.817 0 240C0 284.183 35.8172 320 80 320C124.183 320 160 284.183 160 240Z" 
              fill="white" 
              opacity="0.9"/>
        
        <!-- Pontos de conexão -->
        <circle cx="80" cy="80" r="8" fill="#4f46e5"/>
        <circle cx="80" cy="240" r="8" fill="#4f46e5"/>
    </g>
    
    <!-- Linhas de conexão -->
    <path d="M176 80L176 240" 
          stroke="white" 
          stroke-width="8" 
          stroke-linecap="round"/>
    
    <!-- Elementos decorativos -->
    <circle cx="256" cy="256" r="8" fill="white" opacity="0.3"/>
    <circle cx="256" cy="256" r="16" fill="white" opacity="0.2"/>
    <circle cx="256" cy="256" r="24" fill="white" opacity="0.1"/>
</svg> 